<svg xmlns="http://www.w3.org/2000/svg" fill="none" viewBox="0 0 717 506"><path fill="#1B1F24" fill-rule="evenodd" d="M66.748 263.288C66.748 122.245 181 8 322.051 8 427.499 8 517.97 71.846 556.932 163.018c-25.808 15.933-52.826 30.654-80.401 44.176-4.367-9.562-10.209-18.178-17.243-25.9 2.553-6.382 11.489-32.545-2.553-67.651 0 0-21.384-7.016-70.208 26.171a236.746 236.746 0 00-63.826-8.618 237.058 237.058 0 00-63.826 8.618c-48.824-32.87-70.208-26.171-70.208-26.171-14.041 35.106-5.106 61.269-2.553 67.651-16.277 17.871-26.172 40.846-26.172 68.611 0 24.863 3.847 44.823 10.521 60.871-39.602 7.993-73 12.335-96.5 13.101-4.716-19.411-7.215-39.7-7.215-60.589zm10.325 72.186c23.537 80.12 85.293 143.704 164.241 170.02 12.765 2.236 17.554-5.423 17.554-12.122 0-2.108-.039-5.912-.089-10.875-.094-9.319-.229-22.725-.229-36.671-64.142 11.805-80.737-15.634-85.843-29.992-2.87-7.341-15.318-30-26.173-36.057-8.935-4.789-21.7-16.594-.317-16.911 20.107-.317 34.466 18.504 39.255 26.171 22.977 38.61 59.679 27.764 74.355 21.065 2.236-16.594 8.936-27.765 16.277-34.147-38.103-4.281-77.351-15.595-99.066-52.047-43.03 7.323-77.872 10.721-99.965 11.566zm406.325-106.983c1.352 6.757 2.063 13.891 2.063 21.414 0 97.969-59.679 119.668-116.48 126.05 9.252 7.976 17.237 23.293 17.237 47.228 0 22.729-.141 42.486-.235 55.699a2546.28 2546.28 0 00-.083 14.506c0 6.699 4.789 14.683 17.554 12.122 100.845-33.822 173.923-129.563 173.923-242.206-.005-27.484-4.345-53.95-12.376-78.751-26.739 16.238-54.105 30.834-81.603 43.938z" clip-rule="evenodd"/><path fill="#1B1F24" fill-rule="evenodd" d="M627.887 88.237a24.01 24.01 0 01-1.992 35.715C449.857 265.101 171.657 327.01 58.65 327.01 27.42 327.01.74 319 .74 302.75c0-18.398 24.64-40.485 88.005-73.514a4.607 4.607 0 015.963 1.522 4.6 4.6 0 01-.265 5.462 4.615 4.615 0 01-1.514 1.21C42.073 262.786 12.75 287.9 12.75 301.09c0 6.79 12.75 9.93 37.75 9.93 46.316 0 333.518-43.775 544.892-224.093a23.969 23.969 0 0132.495 1.31z" clip-rule="evenodd"/><path fill="#6BD6D0" d="M716.906 53.082c-35.76 10.216-43.703 18.776-53.084 53.082-9.382-34.306-17.325-42.866-53.085-53.082C646.497 42.866 654.44 34.305 663.822 0c9.381 34.305 17.324 42.866 53.084 53.082z"/></svg>